Coordinates
version=1
nRows=7
nColumns=32
inDegrees=yes

Units are S.I. units (second, meters, Newtons, ...)
If the header above contains a line with 'inDegrees', this indicates whether rotational values are in degrees (yes) or radians (no).

endheader
time	pelvis_tilt	pelvis_list	pelvis_rotation	pelvis_tx	pelvis_ty	pelvis_tz	hip_flexion_r	hip_adduction_r	hip_rotation_r	knee_angle_r	knee_adduction_r	med_cond_adduction_r	lat_cond_adduction_r	patella_r_constrained_knee_angle	hip_flexion_l	hip_adduction_l	hip_rotation_l	knee_angle_l	knee_adduction_l	med_cond_adduction_l	lat_cond_adduction_l	patella_l_constrained_knee_angle	lumbar_extension	lumbar_bending	lumbar_rotation	ankle_angle_r	subtalar_angle_r	mtp_angle_r	ankle_angle_l	subtalar_angle_l	mtp_angle_l
      0.55000000	    -11.46450460	      5.18421468	      9.21650499	     -0.64693457	      0.83997744	      0.18600128	     38.47780600	     -9.49930012	     -5.21072229	     -7.59757325	      1.44176338	      0.00000000	      0.00000000	     -0.13260267	     -3.57379686	      8.17972803	     14.89745859	    -16.54696188	      3.32186725	     -0.00000000	      0.00000000	     -0.28879897	     -6.80788893	     -7.56464344	     -7.76006062	     -0.61468616	     -1.67418937	     -0.00000000	     12.35733096	     17.72403385	     -0.00000000
      0.55500000	    -11.39751536	      4.98351269	      8.93550454	     -0.63931358	      0.83930587	      0.18662855	     38.65397920	     -8.89170785	     -4.49771057	     -8.58256761	      1.39825771	      0.00000000	      0.00000000	     -0.14979406	     -3.47979756	      7.84628987	     14.73872279	    -17.67585796	      3.60582744	     -0.00000000	     -0.00000000	     -0.30850192	     -6.69049745	     -7.19110721	     -7.51587923	     -1.14296633	     -1.23716845	     -0.00000000	     11.86902885	     17.69608567	      0.00000000
      0.56000000	    -11.32564690	      4.80912451	      8.68640168	     -0.63177835	      0.83867840	      0.18725842	     38.84388334	     -8.31918462	     -3.76361921	     -9.63115702	      1.33376114	     -0.00000000	     -0.00000000	     -0.16809540	     -3.32981992	      7.52582490	     14.66772119	    -18.88988031	      3.95329916	     -0.00000000	     -0.00000000	     -0.32969061	     -6.63109447	     -6.85201741	     -7.36523042	     -1.79611527	     -0.81137745	      0.00000000	     11.26381372	     17.65697285	     -0.00000000
      0.56500000	    -11.27207384	      4.61067185	      8.47125226	     -0.62428227	      0.83807989	      0.18785519	     39.08121715	     -7.74885978	     -3.12642882	    -10.75975285	      1.24098992	      0.00000000	      0.00000000	     -0.18779311	     -3.08312550	      7.18066624	     14.67962580	    -20.20359869	      4.35074568	     -0.00000000	     -0.00000000	     -0.35261932	     -6.57661297	     -6.48583181	     -7.37137138	     -2.45807784	     -0.21541676	     -0.00000000	     10.51021374	     17.57447738	      0.00000000
      0.57000000	    -11.22097409	      4.36331636	      8.01916462	     -0.61678217	      0.83745651	      0.18870277	     39.32437304	     -6.96471961	     -2.09145033	    -11.83218801	      1.17218694	      0.00000000	      0.00000000	     -0.20651064	     -2.71862277	      6.77067294	     14.27503514	    -21.65477225	      4.76269722	     -0.00000000	     -0.00000000	     -0.37794707	     -6.40725918	     -6.03264044	     -6.71150265	     -3.26419484	      0.09225893	      0.00000000	      9.61915858	     17.63750626	      0.00000000
      0.57500000	    -11.17663939	      4.15657728	      7.70959267	     -0.60937620	      0.83690515	      0.18938358	     39.62281269	     -6.33694444	     -1.34814138	    -13.05959452	      1.07755536	      0.00000000	      0.00000000	     -0.22793292	     -2.30122136	      6.40648548	     14.17461439	    -23.16250861	      5.23599884	     -0.00000000	     -0.00000000	     -0.40426204	     -6.33695970	     -5.66494405	     -6.76749110	     -3.86747925	      0.79375064	     -0.00000000	      8.53791566	     17.57660400	      0.00000000
      0.58000000	    -11.16546886	      4.00151836	      7.30718591	     -0.60206559	      0.83633208	      0.19014116	     39.98283481	     -5.73844233	     -0.30647841	    -14.32943078	      1.11825893	     -0.00000000	     -0.00000000	     -0.25009575	     -1.78212914	      6.11185241	     14.02469418	    -24.73598214	      5.73225459	      0.00000000	      0.00000000	     -0.43172433	     -6.27928020	     -5.38566101	     -6.46430906	     -4.50730712	      1.09229930	      0.00000000	      7.28418672	     17.47030129	      0.00000000
